<svg width="19" height="18" viewBox="0 0 19 18" fill="none" xmlns="http://www.w3.org/2000/svg">
<path d="M13.48 16.64C12.1067 17.0533 10.7933 17.2533 9.54 17.24C8.28667 17.2267 7.13333 17.02 6.08 16.62C5.04 16.22 4.13333 15.6533 3.36 14.92C2.6 14.1867 2.00667 13.3067 1.58 12.28C1.15333 11.2533 0.94 10.1067 0.94 8.84C0.94 7.82667 1.08667 6.88 1.38 6C1.67333 5.10667 2.08667 4.3 2.62 3.58C3.16667 2.86 3.81333 2.24 4.56 1.72C5.32 1.18667 6.16 0.779999 7.08 0.5C8 0.219999 8.98667 0.0799992 10.04 0.0799992C11.3067 0.0799992 12.46 0.266666 13.5 0.639999C14.5533 1.01333 15.46 1.54 16.22 2.22C16.98 2.9 17.5667 3.70667 17.98 4.64C18.3933 5.56 18.6 6.58 18.6 7.7C18.6 8.5 18.4733 9.21333 18.22 9.84C17.9667 10.4667 17.6267 11 17.2 11.44C16.7733 11.8667 16.2867 12.1933 15.74 12.42C15.2067 12.6333 14.6467 12.74 14.06 12.74C13.5933 12.74 13.18 12.66 12.82 12.5C12.4733 12.3267 12.18 12.0867 11.94 11.78C11.6467 12.1133 11.28 12.3867 10.84 12.6C10.4 12.8 9.91333 12.9 9.38 12.9C8.71333 12.9 8.08667 12.7267 7.5 12.38C6.92667 12.02 6.46667 11.5267 6.12 10.9C5.77333 10.26 5.6 9.52667 5.6 8.7C5.6 7.86 5.77333 7.12667 6.12 6.5C6.46667 5.87333 6.92667 5.38667 7.5 5.04C8.07333 4.69333 8.69333 4.52 9.36 4.52C9.72 4.52 10.06 4.58 10.38 4.7C10.7 4.82 10.98 4.98667 11.22 5.2C11.22 5.12 11.22 5.04 11.22 4.96C11.22 4.88 11.22 4.8 11.22 4.72C11.6467 4.72 12.08 4.72 12.52 4.72C12.96 4.72 13.3933 4.72 13.82 4.72C13.82 5.53333 13.82 6.35333 13.82 7.18C13.82 8.00667 13.82 8.83333 13.82 9.66C13.82 9.88667 13.8733 10.06 13.98 10.18C14.1 10.3 14.2667 10.36 14.48 10.36C14.72 10.36 14.96 10.2667 15.2 10.08C15.4533 9.88 15.66 9.59333 15.82 9.22C15.9933 8.83333 16.08 8.37333 16.08 7.84C16.08 7.05333 15.9333 6.33333 15.64 5.68C15.3467 5.02667 14.9333 4.46 14.4 3.98C13.8667 3.5 13.2267 3.13333 12.48 2.88C11.7333 2.61333 10.9 2.48 9.98 2.48C9.03333 2.48 8.16667 2.64 7.38 2.96C6.59333 3.26667 5.90667 3.70667 5.32 4.28C4.74667 4.84 4.3 5.50667 3.98 6.28C3.67333 7.04 3.52 7.87333 3.52 8.78C3.52 9.74 3.69333 10.6067 4.04 11.38C4.38667 12.1533 4.86667 12.8067 5.48 13.34C6.10667 13.86 6.84 14.2467 7.68 14.5C8.52 14.7533 9.42667 14.8467 10.4 14.78C11.3867 14.7267 12.4133 14.4933 13.48 14.08C13.48 14.4933 13.48 14.9133 13.48 15.34C13.48 15.78 13.48 16.2133 13.48 16.64ZM9.74 10.42C10.1933 10.42 10.5533 10.2667 10.82 9.96C11.0867 9.64 11.22 9.22 11.22 8.7C11.22 8.18 11.0867 7.76667 10.82 7.46C10.5533 7.15333 10.1933 7 9.74 7C9.3 7 8.94667 7.15333 8.68 7.46C8.42667 7.75333 8.3 8.16667 8.3 8.7C8.3 9.23333 8.42667 9.65333 8.68 9.96C8.94667 10.2667 9.3 10.42 9.74 10.42Z" fill="white"/>
</svg>
